<svg width="600" height="600" viewBox="0 0 600 600" xmlns="http://www.w3.org/2000/svg">
  <!-- Background -->
  <rect width="600" height="600" fill="#5D2E8C" fill-opacity="0.1"/>
  
  <!-- Profile image placeholder -->
  <circle cx="300" cy="200" r="120" fill="#5D2E8C" fill-opacity="0.3" stroke="#5D2E8C" stroke-width="3"/>
  
  <!-- Silhouette -->
  <path d="M300 130 C330 130 350 160 350 190 C350 220 330 250 300 250 C270 250 250 220 250 190 C250 160 270 130 300 130" fill="#5D2E8C" fill-opacity="0.4"/>
  <path d="M230 340 C230 280 370 280 370 340 L370 400 L230 400 Z" fill="#5D2E8C" fill-opacity="0.4"/>
  
  <!-- Clipboard for event manager -->
  <rect x="345" y="290" width="40" height="60" rx="5" fill="#DAB03C" fill-opacity="0.8" stroke="#5D2E8C" stroke-width="2"/>
  <rect x="350" y="300" width="30" height="5" rx="2" fill="white"/>
  <rect x="350" y="310" width="30" height="5" rx="2" fill="white"/>
  <rect x="350" y="320" width="30" height="5" rx="2" fill="white"/>
  <rect x="350" y="330" width="20" height="5" rx="2" fill="white"/>
  
  <!-- Name and description -->
  <text x="300" y="450" font-family="Montserrat, sans-serif" font-size="24" font-weight="bold" text-anchor="middle" fill="#5D2E8C">David Thompson</text>
  <text x="300" y="480" font-family="Inter, sans-serif" font-size="18" text-anchor="middle" fill="#DAB03C">Catering Manager & Event Specialist</text>
  
  <!-- Placeholder text -->
  <text x="300" y="530" font-family="Inter, sans-serif" font-size="14" text-anchor="middle" fill="#5D2E8C">Photo placeholder for David</text>
  
  <!-- Initials in the circle -->
  <text x="300" y="205" font-family="Montserrat, sans-serif" font-size="48" font-weight="bold" text-anchor="middle" fill="#5D2E8C">DT</text>
</svg>